<?xml version="1.0" encoding="UTF-8"?><svg id="Calque_1" xmlns="http://www.w3.org/2000/svg" viewBox="0 0 226.76 226.76"><defs><style>.cls-1{fill:#327484;}.cls-2{stroke-linecap:round;stroke-linejoin:round;}.cls-2,.cls-3{fill:none;stroke:#327484;stroke-width:2px;}.cls-3{stroke-miterlimit:10;}</style></defs><path class="cls-1" d="M173.49,140.25c-1.94,3.23-3.95,18.96-24.42,18.96-5.4,0-10.26-1.42-14.59-4.26-4.33-2.84-7.75-7.59-10.26-14.24-2.51-6.66-3.77-15.71-3.77-27.16s1.33-20.64,3.98-27.3c2.65-6.66,6.19-11.43,10.61-14.31,4.42-2.88,9.33-4.33,14.73-4.33,17.53,0,21.8,15.5,22.57,19.24,.23,1.09,1.14,1.98,2.26,1.99,0,0,.02,0,.03,0l-.39-12.04c-.11-3.27-2.06-6.23-5.07-7.51-2.46-1.05-5.01-1.93-7.66-2.65-4.47-1.21-9.36-1.82-14.66-1.82-6.61,0-12.87,1.03-18.78,3.07-5.91,2.05-11.13,5.12-15.64,9.22-4.52,4.1-8.08,9.17-10.68,15.22-1.24,2.87-2.17,5.97-2.82,9.29l4.26,5.84c.6,.82,1.15,1.68,1.57,2.61,.34,.73,.54,1.35,.54,2.14,0,2.02-1.5,3.46-3.44,3.47-1.94,0-3.72-1.58-3.73-3.69,0-1.43,.91-2.7,2.09-3.21l-5.04-12.24-11.87-16.71c-4.66-6.56-12.2-10.45-20.24-10.45h-11.9c0,.89,.36,1.75,.99,2.38l1.39,1.39c1.3,1.21,2.33,2.21,3.07,3,.74,.79,1.42,1.75,2.03,2.86,.6,1.12,1.42,2.79,2.44,5.03v67.17c0,1.86-.37,3.47-1.12,4.82-.75,1.35-1.95,2.26-3.63,2.72l-3.27,.99c-.79,.24-1.34,.97-1.34,1.8h21.23v-.04c0-.81-.52-1.53-1.29-1.79l-2.9-.97c-1.77-.56-2.93-1.49-3.49-2.79-.56-1.3-.84-2.88-.84-4.75v-62.56l41.82,56.95c7.53,11.5,23.79,16.36,32,16.36h22.55c7.93,0,14.52-5.54,14.52-14.12l.29-8.77c-.87,0-1.67,.45-2.11,1.19Z"/><circle class="cls-3" cx="113.38" cy="113.38" r="112.38"/><path class="cls-2" d="M203.93,83.2c3.16,9.49,4.87,19.63,4.87,30.18,0,15.11-3.51,29.41-9.77,42.11"/><path class="cls-2" d="M30.2,160.18c-7.8-13.83-12.24-29.79-12.24-46.8,0-9.6,1.42-18.87,4.05-27.61"/><g><path class="cls-1" d="M24.21,75.67c-2.45-1.17-3.33-3.89-2.13-6.41,.64-1.34,1.67-2.26,2.92-2.6l.46,1.43c-.93,.29-1.6,.88-2.01,1.74-.81,1.7-.2,3.5,1.49,4.31,1.69,.8,3.47,.14,4.28-1.56,.41-.86,.44-1.75,.07-2.66l1.41-.54c.53,1.19,.46,2.57-.18,3.92-1.2,2.51-3.86,3.55-6.31,2.38Z"/><path class="cls-1" d="M28.64,66.5c-2.28-1.42-2.87-4.24-1.38-6.63,1.49-2.39,4.27-3.12,6.56-1.69s2.87,4.24,1.38,6.63c-1.49,2.39-4.28,3.11-6.56,1.69Zm4.28-6.87c-1.58-.98-3.43-.53-4.4,1.02-.97,1.56-.55,3.42,1.03,4.4,1.58,.98,3.43,.53,4.4-1.02,.97-1.56,.55-3.42-1.02-4.4Z"/><path class="cls-1" d="M36.97,46.82l7.09,5.7-.87,1.08-7.95,.05,4.8,3.86-1.05,1.31-7.09-5.7,.87-1.08,7.95-.05-4.8-3.86,1.05-1.31Z"/><path class="cls-1" d="M44.8,50.29l-.52-1.34c.93-.1,2.04-.63,2.83-1.42,1-1,1.06-1.79,.58-2.26-1.39-1.38-4.29,3.36-6.69,.97-1.04-1.04-1.1-2.75,.66-4.52,.77-.77,1.78-1.38,2.71-1.58l.55,1.3c-.92,.24-1.72,.71-2.28,1.27-.99,1-1.01,1.79-.52,2.27,1.37,1.37,4.29-3.35,6.65-.99,1.03,1.03,1.08,2.75-.68,4.52-1,1-2.31,1.7-3.31,1.77Z"/><path class="cls-1" d="M49.6,41.37l-3.24-3.98,1.31-1.07,3.2,3.93c1.18,1.45,2.35,1.54,3.48,.61,1.14-.93,1.27-2.08,.09-3.53l-3.2-3.93,1.29-1.05,3.24,3.98c1.67,2.05,1.43,4.12-.5,5.68-1.93,1.58-4,1.4-5.68-.65Z"/><path class="cls-1" d="M55.55,30.22l1.41-.93,4.21,6.41,3.98-2.61,.79,1.19-5.39,3.54-5-7.6Z"/><path class="cls-1" d="M64.72,26.2l-2.64,1.45-.69-1.25,6.77-3.72,.69,1.25-2.64,1.45,3.69,6.73-1.48,.81-3.69-6.73Z"/><path class="cls-1" d="M78.27,25.85l-4.18,1.79v2.29s-1.59,.69-1.59,.69l.17-9.98,1.53-.66,7.36,6.74-1.62,.7-1.67-1.58Zm-1.04-1l-3.15-2.98v4.33s3.15-1.35,3.15-1.35Z"/><path class="cls-1" d="M88.19,15.21l2.61,8.72-1.33,.4-6.57-4.46,1.76,5.9-1.61,.48-2.61-8.72,1.33-.4,6.57,4.46-1.77-5.9,1.61-.48Z"/><path class="cls-1" d="M94.01,15.44l-2.96,.56-.26-1.4,7.59-1.42,.26,1.4-2.96,.56,1.41,7.54-1.66,.31-1.41-7.54Z"/><path class="cls-1" d="M108.41,19.87l.13,1.41-6.79,.62-.83-9.06,6.61-.61,.13,1.41-4.93,.45,.22,2.36,4.37-.4,.13,1.38-4.37,.4,.23,2.5,5.11-.47Z"/><path class="cls-1" d="M114.32,20.2l.65-1.28c.7,.62,1.83,1.09,2.95,1.14,1.42,.07,2.04-.41,2.07-1.08,.09-1.96-5.37-.94-5.21-4.31,.07-1.47,1.3-2.66,3.79-2.54,1.09,.05,2.22,.39,2.99,.95l-.6,1.29c-.79-.52-1.68-.8-2.47-.83-1.4-.07-2,.45-2.03,1.14-.09,1.94,5.36,.94,5.2,4.27-.07,1.45-1.31,2.64-3.8,2.52-1.42-.07-2.81-.58-3.53-1.26Z"/><path class="cls-1" d="M123.67,17.09c.42-2.66,2.78-4.3,5.57-3.87s4.54,2.71,4.12,5.38-2.78,4.3-5.57,3.87-4.54-2.73-4.12-5.38Zm8,1.25c.29-1.84-.85-3.37-2.67-3.66-1.81-.28-3.37,.83-3.66,2.67-.29,1.84,.85,3.37,2.67,3.66,1.81,.28,3.37-.83,3.66-2.67Z"/><path class="cls-1" d="M135.39,19.1c.73-2.62,3.26-3.95,5.96-3.2,1.43,.4,2.51,1.25,3.06,2.43l-1.33,.7c-.45-.87-1.14-1.43-2.06-1.68-1.82-.51-3.49,.4-3.99,2.21-.5,1.8,.46,3.45,2.27,3.96,.92,.26,1.8,.14,2.63-.39l.77,1.3c-1.08,.72-2.45,.9-3.89,.49-2.68-.75-4.16-3.2-3.43-5.82Z"/><path class="cls-1" d="M147.4,17.98l1.59,.58-3.13,8.54-1.59-.58,3.13-8.54Z"/><path class="cls-1" d="M154.84,28.68l-4.13-1.91-1.7,1.54-1.58-.73,7.53-6.55,1.51,.7-.08,9.99-1.61-.74,.06-2.29Zm.05-1.44l.11-4.33-3.21,2.9,3.11,1.43Z"/><path class="cls-1" d="M162.37,24.71l1.46,.86-3.89,6.61,4.1,2.41-.72,1.23-5.56-3.27,4.61-7.84Z"/><path class="cls-1" d="M174.66,44.47l3.83-4.66-5.49,1.94-.58-.48,.83-5.7-3.79,4.59-1.24-1.03,5.8-7.02,1.07,.89-1.06,6.96,6.58-2.39,1.07,.89-5.79,7.03-1.23-1.02Z"/><path class="cls-1" d="M183.62,51.45l-1.02,.98-4.71-4.93,6.58-6.28,4.58,4.8-1.02,.98-3.42-3.58-1.71,1.63,3.03,3.18-1.01,.96-3.03-3.18-1.81,1.73,3.54,3.71Zm3.9-8.11l-.97-1.02,2.5,.04,1.32,1.38-2.85-.41Z"/><path class="cls-1" d="M191.35,48.65l2.41,3.16c1.79,2.35,1.57,5.05-.6,6.71-2.17,1.66-4.84,1.16-6.63-1.18l-2.41-3.16,7.23-5.52Zm-3.73,7.75c1.23,1.61,3.01,1.91,4.51,.76s1.68-2.94,.45-4.55l-1.34-1.76-4.96,3.79,1.34,1.76Z"/><path class="cls-1" d="M198.39,58.34l.91,1.43-7.68,4.89-.91-1.43,7.68-4.89Z"/><path class="cls-1" d="M197.8,71.36l-2.13-4.02-2.28,.19-.81-1.54,9.96-.63,.78,1.47-6.12,7.88-.83-1.56,1.44-1.79Zm.91-1.11l2.71-3.38-4.31,.35,1.6,3.02Z"/></g><g><path class="cls-1" d="M34.27,176.62l.2-1.58c-1.05-.24-1.99-.84-2.7-1.8-1.15-1.54-1.18-3.26-.03-4.11,.91-.68,1.92-.65,3.47,.04,.15-1.04,.47-1.61,1-2.01,1.02-.76,2.34-.45,3.3,.83,.88,1.18,.84,2.41-.15,3.15-.75,.56-1.62,.53-3-.08l-.33,2.69c.48-.08,.99-.25,1.53-.51l.44,1.31c-.74,.34-1.46,.54-2.16,.59l-.19,1.57-1.38-.09Zm.37-2.9l.41-3.3c-1.1-.49-1.7-.5-2.22-.11-.6,.45-.59,1.34,.08,2.24,.45,.6,1.03,1,1.73,1.17Zm2.48-5.38c-.32,.24-.46,.56-.59,1.46,1.09,.5,1.59,.55,1.99,.25,.42-.31,.47-.82,.07-1.36-.44-.58-1.01-.69-1.46-.35Z"/><path class="cls-1" d="M46.31,178.37l-1.96,1.95,3.1,3.11-1.01,1.01-3.1-3.11-2.47,2.46-1.19-1.2,6.45-6.42,4.69,4.71-1,1-3.49-3.51Z"/><path class="cls-1" d="M48.74,185.23c1.7-2.09,4.56-2.32,6.75-.54,2.19,1.78,2.56,4.62,.85,6.72-1.71,2.1-4.56,2.32-6.75,.54-2.19-1.78-2.55-4.63-.85-6.72Zm6.28,5.1c1.17-1.44,.96-3.34-.47-4.5s-3.33-.98-4.5,.47-.96,3.34,.47,4.5,3.33,.98,4.5-.47Z"/><path class="cls-1" d="M61.05,199.9l-.13-3.25c-.11-.05-.2-.12-.3-.18l-1.73-1.11-1.43,2.23-1.42-.91,4.9-7.67,3.16,2.02c2.02,1.29,2.61,3.12,1.52,4.81-.74,1.16-1.88,1.64-3.18,1.38l.15,3.65-1.53-.98Zm2.2-7.7l-1.67-1.06-1.95,3.06,1.67,1.06c1.25,.8,2.26,.64,2.88-.32,.62-.96,.33-1.94-.92-2.73Z"/><path class="cls-1" d="M72.77,206.02l2.59-5.44-4.85,3.21-.68-.33-.57-5.72-2.57,5.37-1.45-.7,3.93-8.2,1.25,.6,.65,7,5.8-3.9,1.25,.6-3.92,8.21-1.44-.69Z"/><path class="cls-1" d="M84.05,207.95l-4.31-1.45-1.52,1.71-1.65-.55,6.78-7.33,1.58,.53,1,9.94-1.68-.56-.19-2.29Zm-.11-1.44l-.36-4.32-2.88,3.23,3.24,1.09Z"/><path class="cls-1" d="M91.28,204.15l-2.94-.68,.32-1.39,7.52,1.75-.32,1.39-2.94-.68-1.74,7.47-1.65-.38,1.74-7.47Z"/><path class="cls-1" d="M102.48,213.9l-1.5-2.89c-.12,0-.23-.02-.35-.03l-2.04-.27-.34,2.63-1.68-.22,1.19-9.03,3.71,.49c2.37,.31,3.68,1.72,3.42,3.72-.18,1.37-1.01,2.28-2.29,2.6l1.69,3.24-1.81-.24Zm-1.27-7.91l-1.96-.26-.47,3.6,1.96,.26c1.47,.19,2.32-.38,2.47-1.51,.15-1.13-.53-1.89-2-2.08Z"/><path class="cls-1" d="M107.59,205.17l1.69,.09-.48,9.09-1.69-.09,.48-9.09Z"/><path class="cls-1" d="M111.55,209.97c-.06-2.72,1.97-4.73,4.77-4.79,1.48-.03,2.77,.47,3.64,1.44l-1.07,1.05c-.68-.7-1.51-1.03-2.46-1.01-1.89,.04-3.22,1.4-3.18,3.27s1.44,3.17,3.33,3.12c.95-.02,1.76-.39,2.41-1.14l1.12,1.01c-.82,1.01-2.08,1.57-3.58,1.61-2.78,.07-4.91-1.85-4.97-4.57Z"/><path class="cls-1" d="M129.54,211.8l.18,1.41-6.77,.85-1.13-9.03,6.59-.83,.18,1.41-4.91,.62,.29,2.35,4.36-.55,.17,1.38-4.36,.55,.31,2.49,5.09-.64Z"/><path class="cls-1" d="M134.76,202.89l1.63-.44,1.99,7.41,4.6-1.23,.37,1.38-6.23,1.67-2.36-8.79Z"/><path class="cls-1" d="M142.63,200.61l1.6-.55,2.97,8.6-1.6,.55-2.97-8.6Z"/><path class="cls-1" d="M154.29,195.88l3.68,8.32-1.27,.56-7.08-3.6,2.5,5.63-1.53,.68-3.68-8.32,1.27-.56,7.08,3.6-2.5-5.63,1.53-.68Z"/><path class="cls-1" d="M162.05,197.61l-.5,2.01,1.17,2.01-1.46,.85-4.59-7.86,1.46-.85,2.36,4.03,1.53-6.3,1.64-.96-1.25,5.44,6.04,2.3-1.71,1-4.7-1.67Z"/><path class="cls-1" d="M175.05,191.75l.83,1.14-5.51,4.02-5.36-7.35,5.36-3.91,.83,1.14-4,2.92,1.39,1.91,3.55-2.59,.82,1.12-3.55,2.59,1.48,2.03,4.15-3.03Z"/><path class="cls-1" d="M172.23,184.18l2.94-2.68c2.18-1.99,4.9-2,6.74,.02,1.84,2.02,1.58,4.72-.61,6.71l-2.94,2.68-6.13-6.73Zm8.05,3.04c1.5-1.37,1.64-3.16,.37-4.56-1.27-1.39-3.07-1.42-4.57-.06l-1.63,1.49,4.2,4.61,1.63-1.49Z"/><path class="cls-1" d="M180.25,176.53l1.15-1.24,6.68,6.18-1.15,1.24-6.68-6.18Z"/><path class="cls-1" d="M188.31,166.87l7.17,5.61-.86,1.1-7.95,.15,4.85,3.8-1.03,1.32-7.17-5.61,.86-1.1,7.95-.15-4.85-3.8,1.03-1.32Z"/></g></svg>