<?xml version="1.0" encoding="UTF-8"?><svg id="Calque_1" xmlns="http://www.w3.org/2000/svg" viewBox="0 0 66.74 58.91"><defs><style>.cls-1{fill:#ed6b4b;}</style></defs><path class="cls-1" d="M62.9,45.25c-.04,7.8-6.62,13.7-13.79,13.66-7.17-.03-12.76-5.36-12.73-12.85,.01-2.92,.76-5.24,2-7.93,1.58-3.41,3.59-6.62,5.83-9.64L61.19,.12,66.74,0l-11.59,33.36c4.36,1.89,7.77,6.59,7.74,11.89Z"/><path class="cls-1" d="M26.52,45.25c-.04,7.8-6.62,13.7-13.79,13.66C5.56,58.88-.04,53.55,0,46.06c.01-2.92,.76-5.24,2-7.93,1.58-3.41,3.59-6.62,5.83-9.64L24.82,.12l5.55-.12-11.59,33.36c4.36,1.89,7.77,6.59,7.74,11.89Z"/></svg>